<svg width="16" height="15" viewBox="0 0 16 15" fill="none" xmlns="http://www.w3.org/2000/svg">
<path d="M8.34644 6.08716V8.91336" stroke="white" stroke-linecap="round" stroke-linejoin="round"/>
<path d="M7.36805 1.56416L1.15208 12.3032C1.05262 12.475 1.00016 12.67 1 12.8686C0.999836 13.0671 1.05197 13.2622 1.15114 13.4342C1.25032 13.6062 1.39305 13.7491 1.56497 13.8484C1.73689 13.9477 1.93194 14 2.13049 14H14.5624C14.761 14 14.956 13.9477 15.1279 13.8484C15.2999 13.7491 15.4426 13.6062 15.5418 13.4342C15.6409 13.2622 15.6931 13.0671 15.6929 12.8686C15.6927 12.67 15.6403 12.475 15.5408 12.3032L9.32486 1.56416C9.22555 1.3926 9.08288 1.25016 8.91116 1.15114C8.73943 1.05212 8.54468 1 8.34645 1C8.14823 1 7.95348 1.05212 7.78175 1.15114C7.61003 1.25016 7.46736 1.3926 7.36805 1.56416V1.56416Z" stroke="white" stroke-linecap="round" stroke-linejoin="round"/>
<path d="M8.34643 12.3048C8.81469 12.3048 9.19429 11.9252 9.19429 11.457C9.19429 10.9887 8.81469 10.6091 8.34643 10.6091C7.87817 10.6091 7.49857 10.9887 7.49857 11.457C7.49857 11.9252 7.87817 12.3048 8.34643 12.3048Z" fill="white"/>
</svg>
