<svg width="8" height="8" viewBox="0 0 8 8" fill="none" xmlns="http://www.w3.org/2000/svg">
<path d="M1.41628 0.28811L4.06799 2.93848L6.7197 0.28811C7.01261 -0.00476034 7.48749 -0.00472338 7.78036 0.288193C8.07323 0.581109 8.07319 1.05598 7.78028 1.34885L5.12899 3.99948L7.78028 6.65111C8.07319 6.94398 8.07323 7.41885 7.78036 7.71177C7.48749 8.00469 7.01261 8.00472 6.7197 7.71185L4.06799 5.06048L1.41628 7.71185C1.12336 8.00472 0.648485 8.00469 0.355615 7.71177C0.0627445 7.41885 0.0627815 6.94398 0.355698 6.65111L3.00599 3.99948L0.355698 1.34885C0.0627815 1.05598 0.0627445 0.581109 0.355615 0.288193C0.648485 -0.00472338 1.12336 -0.00476034 1.41628 0.28811Z" fill="#6F7A81"/>
</svg>
